<?xml version="1.0" standalone="no"?>
<!DOCTYPE svg PUBLIC "-//W3C//DTD SVG 20010904//EN"
 "http://www.w3.org/TR/2001/REC-SVG-20010904/DTD/svg10.dtd">
<svg version="1.0" xmlns="http://www.w3.org/2000/svg"
 width="488.000000pt" height="103.000000pt" viewBox="0 0 488.000000 103.000000"
 preserveAspectRatio="xMidYMid meet">
<metadata>
Created by potrace 1.16, written by Peter Selinger 2001-2019
</metadata>
<g transform="translate(0.000000,103.000000) scale(0.100000,-0.100000)"
fill="#000000" stroke="none">
<path d="M110 640 c0 -314 6 -346 75 -427 34 -41 124 -94 154 -92 9 0 -4 8
-28 16 -27 10 -67 38 -102 72 -85 83 -89 104 -89 433 l0 268 295 0 295 0 3
-262 2 -263 3 268 2 267 -305 0 -305 0 0 -280z"/>
<path d="M1268 873 l-68 -4 0 -334 0 -335 85 0 85 0 0 69 0 68 84 6 c105 7
175 36 221 90 110 128 76 339 -66 413 -31 16 -175 35 -239 32 -19 -1 -65 -3
-102 -5z m240 -170 c39 -28 55 -83 39 -130 -17 -50 -55 -75 -122 -81 l-55 -4
0 114 c0 63 3 118 8 122 13 14 103 -1 130 -21z"/>
<path d="M4451 867 c-50 -16 -117 -84 -130 -132 -24 -89 -1 -182 55 -222 16
-11 62 -32 102 -47 101 -36 112 -43 112 -71 0 -40 -34 -55 -125 -55 -44 0 -95
4 -113 9 l-32 10 0 -83 0 -83 53 -7 c139 -16 244 -1 313 46 46 31 84 108 84
170 0 102 -46 153 -182 201 -93 33 -108 42 -108 67 0 46 89 72 178 52 l42 -10
0 78 c0 62 -3 79 -16 84 -26 10 -196 5 -233 -7z"/>
<path d="M1840 535 l0 -335 85 0 85 0 0 135 0 136 98 -3 97 -3 3 -133 3 -132
84 0 85 0 0 335 0 335 -85 0 -85 0 0 -125 0 -125 -100 0 -100 0 0 125 0 125
-85 0 -85 0 0 -335z"/>
<path d="M2550 535 l0 -335 85 0 85 0 0 335 0 335 -85 0 -85 0 0 -335z"/>
<path d="M2900 535 l0 -335 175 0 175 0 0 70 0 70 -90 0 -90 0 0 265 0 265
-85 0 -85 0 0 -335z"/>
<path d="M3350 535 l0 -335 85 0 85 0 0 335 0 335 -85 0 -85 0 0 -335z"/>
<path d="M3700 536 l0 -336 85 0 85 0 0 70 0 70 53 0 c75 0 166 26 207 59 150
120 140 351 -20 441 -43 24 -55 25 -227 28 l-183 4 0 -336z m286 178 c59 -28
78 -90 50 -158 -16 -39 -67 -66 -125 -66 l-41 0 0 120 0 120 41 0 c23 0 56 -7
75 -16z"/>
<path d="M340 671 c-124 -38 -213 -169 -195 -289 28 -195 233 -298 402 -202
89 51 132 127 132 235 1 69 -20 123 -68 177 -31 35 -103 78 -131 78 -7 0 14
-14 47 -30 84 -42 143 -124 143 -199 0 -36 -27 -47 -88 -38 -29 5 -33 4 -18
-5 10 -6 38 -8 62 -5 47 5 61 -8 19 -19 -26 -7 -76 -2 -110 10 -11 4 -7 0 9
-9 20 -12 43 -16 78 -13 46 5 48 4 42 -16 -16 -51 -25 -67 -60 -106 -120 -132
-320 -113 -411 40 -36 59 -42 95 -17 104 27 10 78 6 104 -9 30 -17 93 -19 122
-4 11 6 41 15 67 19 39 6 41 8 13 9 -18 0 -49 -6 -69 -14 -46 -19 -96 -19
-135 1 -22 12 -46 15 -80 11 -27 -4 -48 -2 -48 3 0 10 22 17 75 24 17 2 6 3
-23 1 -60 -2 -68 10 -16 24 29 8 48 6 100 -12 l64 -21 64 22 c64 21 73 21 141
-3 19 -6 19 -6 2 5 -43 28 -77 29 -143 8 l-64 -22 -64 22 c-48 16 -72 19 -95
12 -36 -10 -39 1 -18 53 37 86 120 144 224 156 63 8 64 8 18 9 -27 0 -61 -3
-75 -7z"/>
</g>
</svg>
